<svg id="Layer_1" enable-background="new 0 0 512 512" height="512" viewBox="0 0 512 512" width="512"
     xmlns="http://www.w3.org/2000/svg">
    <g>
        <path d="m410.2 109.1h-199.6c-7.6 0-13.7-6.2-13.7-13.7s-6.2-13.7-13.7-13.7h-167.5c-7.5-.1-13.7 6-13.7 13.6v321.4c0 7.6 6.2 13.7 13.7 13.7h394.5c7.6 0 13.7-6.2 13.7-13.7v-293.9c.1-7.6-6.1-13.7-13.7-13.7z"
              fill="#379fc8"/>
        <path d="m410.2 109.1h-199.6c-7.6 0-13.7-6.2-13.7-13.7s-6.2-13.7-13.7-13.7h-167.5c-7.5-.1-13.7 6-13.7 13.6v5.5c0-7.6 6.2-13.7 13.7-13.7h167.3c7.6 0 13.7 6.2 13.7 13.7 0 7.6 6.2 13.7 13.7 13.7h199.6c7.6 0 13.7 6.2 13.7 13.7v-5.5c.3-7.5-5.9-13.6-13.5-13.6z"
              fill="#4cb7d8"/>
        <path d="m30.9 128.8h364.2v301.6h-364.2z" fill="#dbdfe0"/>
        <path d="m395.1 430.4h-364.2l15.5-274.7h364.2z" fill="#eaeaea"/>
        <path d="m395.1 430.4h-364.2l41.1-249.2h364.2z" fill="#eff3f5"/>
        <path d="m395.1 430.4h-364.2l63.6-226.7h364.2z" fill="#f7f7f7"/>
        <path d="m496.1 217.5h-167c-5.5 0-10.5 3.2-12.7 8.2l-.2.4c-2.2 5-7.2 8.2-12.7 8.2h-212c-5.5 0-10.5 3.2-12.7 8.2l-75.6 168.6c-4.1 9.1 2.7 19.3 12.7 19.3h397.1c5.5 0 10.5-3.2 12.7-8.2l83-185.5c4.2-9-2.6-19.2-12.6-19.2z"
              fill="#41b3e2"/>
        <path d="m3.2 416.7 75.5-168.7c2.2-5 7.2-8.2 12.7-8.2h212c5.5 0 10.5-3.2 12.7-8.2l.2-.4c2.2-5 7.2-8.2 12.7-8.2h166.9c7 0 12.3 5 13.6 11 1.8-8.3-4.5-16.6-13.6-16.6h-166.8c-5.5 0-10.5 3.2-12.7 8.2l-.2.4c-2.2 5-7.2 8.2-12.7 8.2h-212c-5.5 0-10.5 3.2-12.7 8.2l-75.6 168.7c-1.2 2.8-1.4 5.6-.8 8.3.2-.9.4-1.8.8-2.7z"
              fill="#58d0f4"/>
    </g>
</svg>