<svg id="Layer_1" enable-background="new 0 0 512 512" height="512" viewBox="0 0 512 512" width="512"
     xmlns="http://www.w3.org/2000/svg">
    <g>
        <path d="m495.4 85.7h-258.5c-2.9 0-5.8-.9-8.2-2.5l-44.5-29.9c-2.4-1.6-5.3-2.5-8.2-2.5h-141c-4.7 0-9 2.2-11.8 6l-18.4 25c-1.8 2.5-2.8 5.5-2.8 8.7v356.1c0 8.1 6.6 14.6 14.6 14.6h478.7c8.1 0 14.6-6.6 14.6-14.6v-346.3c.1-8.1-6.5-14.6-14.5-14.6z"
              fill="#2e89ac"/>
        <path d="m495.4 85.7h-258.5c-2.9 0-5.8-.9-8.2-2.5l-44.5-29.9c-2.4-1.6-5.3-2.5-8.2-2.5h-141c-4.7 0-9 2.2-11.8 6l-18.4 25c-1.8 2.5-2.8 5.5-2.8 8.7v8.7c0-3.2 1-6.2 2.8-8.7l18.4-25c2.8-3.8 7.1-6 11.8-6h141c2.9 0 5.8.9 8.2 2.5l44.5 29.9c2.4 1.6 5.3 2.5 8.2 2.5h258.5c8.1 0 14.6 6.6 14.6 14.6v-8.7c0-8.1-6.6-14.6-14.6-14.6z"
              fill="#409fbc"/>
        <path d="m495.4 149.4h-478.8c-8 0-14.6 6.6-14.6 14.7v282.5c0 8.1 6.6 14.6 14.6 14.6h478.7c8.1 0 14.6-6.6 14.6-14.6v-282.5c.1-8.1-6.5-14.7-14.5-14.7z"
              fill="#41b3e2"/>
        <path d="m495.4 149.4h-478.8c-8 0-14.6 6.6-14.6 14.7v9c0-8.1 6.6-14.6 14.6-14.6h478.7c8.1 0 14.6 6.6 14.6 14.6v-9c.1-8.1-6.5-14.7-14.5-14.7z"
              fill="#5ecdef"/>
        <path d="m32 109h448v40.4h-448z" fill="#eff3f5"/>
        <g fill="#379fc8">
            <path d="m51 211.2h187.5v20.4h-187.5z"/>
            <path d="m51 259.7h187.5v20.4h-187.5z"/>
        </g>
    </g>
</svg>